<svg id="Layer_1" data-name="Layer 1" xmlns="http://www.w3.org/2000/svg" viewBox="0 0 47.06 47.06"><defs><style>.cls-1{fill:#fff;}</style></defs><path class="cls-1" d="M27.27,12.35c-1.46,5.5,3.37,9.77,4.49,14.83C34.64,22,31.71,15.75,27.27,12.35Z" transform="translate(-0.5 -0.5)"/><path class="cls-1" d="M24,.5A23.53,23.53,0,1,0,47.56,24,23.52,23.52,0,0,0,24,.5ZM36,21.75a15.92,15.92,0,0,1-2.9,7.08c0,4.29-1.83,9.25-5.82,11.31C33.89,31.91,32,28.84,25.6,20.6c-2.72,6.52.87,15.71-3.11,21.51-2.5,3.66-10.31.37-13-3.43-7.81-10.86,9-11.36,9.06-6-.08-11.05.86-16.33,6.48-29.82.22-.52,5.56,1.07,6,1.23C28.9,10.61,36.92,15.21,36,21.75Z" transform="translate(-0.5 -0.5)"/></svg>